<svg width="25" height="25" viewBox="0 0 25 25" fill="none" xmlns="http://www.w3.org/2000/svg">
<rect width="25" height="25" rx="12.5" fill="#E8C95D"/>
<g clip-path="url(#clip0_23_36)">
<path d="M19.8304 7.66502L17.3352 5.16949C17.2267 5.06095 17.0795 5 16.926 5C16.7726 5 16.6254 5.06095 16.5169 5.16941L14.0212 7.66509C14.0209 7.6654 14.0206 7.66586 14.0202 7.66617L9.23347 12.4529C9.12925 12.5572 9.06876 12.6972 9.06429 12.8445L8.98599 15.4182C8.98113 15.5777 9.04238 15.732 9.15517 15.8449C9.26387 15.9535 9.41106 16.0143 9.56427 16.0143C9.57014 16.0143 9.57608 16.0142 9.58194 16.014L12.1555 15.9355C12.3028 15.931 12.4428 15.8705 12.5471 15.7664L19.8304 8.48315C20.0564 8.25734 20.0564 7.89098 19.8304 7.66502ZM16.9258 9.7512L15.2486 8.07428L16.926 6.39689L18.603 8.07412L16.9258 9.7512ZM11.891 14.786L10.1613 14.8388L10.2139 13.1091L14.4303 8.89257L16.1076 10.5696L11.891 14.786Z" fill="white"/>
<path d="M15.1979 14.0332C14.8784 14.0332 14.6193 14.2922 14.6193 14.6118V18.8428H6.15732V10.3808H10.3883C10.7079 10.3808 10.9669 10.1218 10.9669 9.8022C10.9669 9.48258 10.7079 9.2236 10.3883 9.2236H5.57872C5.25918 9.2236 5.00012 9.48258 5.00012 9.8022V19.4213C5.00012 19.7409 5.25918 19.9999 5.57872 19.9999H15.1978C15.5174 19.9999 15.7764 19.7409 15.7764 19.4213V14.6117C15.7765 14.2922 15.5175 14.0332 15.1979 14.0332Z" fill="white"/>
</g>
<defs>
<clipPath id="clip0_23_36">
<rect width="15" height="15" fill="white" transform="translate(5 5)"/>
</clipPath>
</defs>
</svg>
