<svg width="25" height="25" viewBox="0 0 25 25" fill="none" xmlns="http://www.w3.org/2000/svg">
<rect width="25" height="25" rx="5" fill="#565CE2"/>
<g clip-path="url(#clip0_21_2)">
<path d="M12.5 5C10.4625 5 10.2081 5.00937 9.40812 5.045C8.60938 5.0825 8.06562 5.20812 7.5875 5.39375C7.09437 5.585 6.67562 5.84187 6.25875 6.25875C5.84187 6.67562 5.58438 7.09375 5.39375 7.5875C5.20812 8.06562 5.08187 8.60938 5.045 9.40812C5.0075 10.2081 5 10.4625 5 12.5C5 14.5375 5.00937 14.7919 5.045 15.5919C5.0825 16.39 5.20812 16.9344 5.39375 17.4125C5.585 17.905 5.84187 18.3244 6.25875 18.7413C6.67562 19.1575 7.09375 19.4156 7.5875 19.6063C8.06625 19.7913 8.61 19.9181 9.40812 19.955C10.2081 19.9925 10.4625 20 12.5 20C14.5375 20 14.7919 19.9906 15.5919 19.955C16.39 19.9175 16.9344 19.7913 17.4125 19.6063C17.905 19.415 18.3244 19.1575 18.7413 18.7413C19.1575 18.3244 19.4156 17.9069 19.6063 17.4125C19.7913 16.9344 19.9181 16.39 19.955 15.5919C19.9925 14.7919 20 14.5375 20 12.5C20 10.4625 19.9906 10.2081 19.955 9.40812C19.9175 8.61 19.7913 8.065 19.6063 7.5875C19.415 7.09437 19.1575 6.67562 18.7413 6.25875C18.3244 5.84187 17.9069 5.58438 17.4125 5.39375C16.9344 5.20812 16.39 5.08187 15.5919 5.045C14.7919 5.0075 14.5375 5 12.5 5ZM12.5 6.35C14.5019 6.35 14.7406 6.36 15.5312 6.39437C16.2625 6.42875 16.6594 6.55 16.9231 6.65375C17.2744 6.78937 17.5231 6.95188 17.7869 7.21375C18.0487 7.47625 18.2112 7.72563 18.3469 8.07687C18.4494 8.34062 18.5719 8.7375 18.605 9.46875C18.6406 10.26 18.6487 10.4975 18.6487 12.5C18.6487 14.5025 18.6394 14.7406 18.6025 15.5312C18.5644 16.2625 18.4425 16.6594 18.3394 16.9231C18.1994 17.2744 18.04 17.5231 17.7775 17.7869C17.5156 18.0487 17.2625 18.2112 16.915 18.3469C16.6525 18.4494 16.2494 18.5719 15.5181 18.605C14.7219 18.6406 14.4875 18.6487 12.4813 18.6487C10.4744 18.6487 10.24 18.6394 9.44438 18.6025C8.7125 18.5644 8.30938 18.4425 8.04688 18.3394C7.69125 18.1994 7.44688 18.04 7.185 17.7775C6.92188 17.5156 6.75375 17.2625 6.6225 16.915C6.51937 16.6525 6.39813 16.2494 6.36 15.5181C6.33188 14.7306 6.32187 14.4875 6.32187 12.4906C6.32187 10.4931 6.33188 10.2494 6.36 9.4525C6.39813 8.72125 6.51937 8.31875 6.6225 8.05625C6.75375 7.7 6.92188 7.45625 7.185 7.19313C7.44688 6.93125 7.69125 6.7625 8.04688 6.63188C8.30938 6.52813 8.70375 6.40625 9.435 6.36875C10.2319 6.34063 10.4662 6.33125 12.4719 6.33125L12.5 6.35ZM12.5 8.64875C10.3719 8.64875 8.64875 10.3738 8.64875 12.5C8.64875 14.6281 10.3738 16.3513 12.5 16.3513C14.6281 16.3513 16.3513 14.6263 16.3513 12.5C16.3513 10.3719 14.6263 8.64875 12.5 8.64875ZM12.5 15C11.1188 15 10 13.8813 10 12.5C10 11.1188 11.1188 10 12.5 10C13.8813 10 15 11.1188 15 12.5C15 13.8813 13.8813 15 12.5 15ZM17.4038 8.49687C17.4038 8.99375 17 9.39687 16.5037 9.39687C16.0069 9.39687 15.6038 8.99312 15.6038 8.49687C15.6038 8.00062 16.0075 7.5975 16.5037 7.5975C16.9994 7.59688 17.4038 8.00062 17.4038 8.49687Z" fill="white"/>
</g>
<defs>
<clipPath id="clip0_21_2">
<rect width="15" height="15" fill="white" transform="translate(5 5)"/>
</clipPath>
</defs>
</svg>
