<svg width="85" height="30" viewBox="0 0 85 30" fill="none" xmlns="http://www.w3.org/2000/svg">
<rect y="4" width="25" height="25" rx="5" fill="#565CE2"/>
<path d="M8.624 24.288C7.6 24.288 6.576 24.096 5.552 23.712C4.544 23.328 3.64 22.768 2.84 22.032L4.856 19.608C5.416 20.088 6.04 20.48 6.728 20.784C7.416 21.088 8.08 21.24 8.72 21.24C9.456 21.24 10 21.104 10.352 20.832C10.72 20.56 10.904 20.192 10.904 19.728C10.904 19.232 10.696 18.872 10.28 18.648C9.88 18.408 9.336 18.144 8.648 17.856L6.608 16.992C6.08 16.768 5.576 16.472 5.096 16.104C4.616 15.72 4.224 15.248 3.92 14.688C3.616 14.128 3.464 13.472 3.464 12.72C3.464 11.856 3.696 11.072 4.16 10.368C4.64 9.664 5.296 9.104 6.128 8.688C6.976 8.272 7.944 8.064 9.032 8.064C9.928 8.064 10.824 8.24 11.72 8.592C12.616 8.944 13.4 9.456 14.072 10.128L12.272 12.36C11.76 11.96 11.248 11.656 10.736 11.448C10.224 11.224 9.656 11.112 9.032 11.112C8.424 11.112 7.936 11.24 7.568 11.496C7.216 11.736 7.04 12.08 7.04 12.528C7.04 13.008 7.264 13.368 7.712 13.608C8.176 13.848 8.744 14.104 9.416 14.376L11.432 15.192C12.376 15.576 13.128 16.104 13.688 16.776C14.248 17.448 14.528 18.336 14.528 19.44C14.528 20.304 14.296 21.104 13.832 21.84C13.368 22.576 12.696 23.168 11.816 23.616C10.936 24.064 9.872 24.288 8.624 24.288ZM17.1839 24V8.352H20.7119V24H17.1839Z" fill="white"/>
<path d="M32.8794 16.08L32.4954 17.52H35.8314L35.4714 16.08C35.2634 15.296 35.0474 14.464 34.8234 13.584C34.6154 12.704 34.4074 11.856 34.1994 11.04H34.1034C33.9114 11.872 33.7114 12.728 33.5034 13.608C33.3114 14.472 33.1034 15.296 32.8794 16.08ZM27.2154 24L32.1114 8.352H36.3594L41.2554 24H37.5114L36.5514 20.28H31.7754L30.8154 24H27.2154ZM42.9652 24V8.352H46.4932V14.76H46.5892L51.2452 8.352H55.1332L50.4052 14.592L55.9972 24H52.1332L48.3172 17.4L46.4932 19.8V24H42.9652ZM61.145 16.08L60.761 17.52H64.097L63.737 16.08C63.529 15.296 63.313 14.464 63.089 13.584C62.881 12.704 62.673 11.856 62.465 11.04H62.369C62.177 11.872 61.977 12.728 61.769 13.608C61.577 14.472 61.369 15.296 61.145 16.08ZM55.481 24L60.377 8.352H64.625L69.521 24H65.777L64.817 20.28H60.041L59.081 24H55.481ZM71.2308 24V8.352H75.6468C77.2468 8.352 78.6308 8.624 79.7988 9.168C80.9668 9.712 81.8708 10.56 82.5108 11.712C83.1668 12.848 83.4948 14.312 83.4948 16.104C83.4948 17.896 83.1748 19.376 82.5348 20.544C81.8948 21.712 80.9988 22.584 79.8468 23.16C78.7108 23.72 77.3748 24 75.8388 24H71.2308ZM74.7588 21.144H75.4308C76.3268 21.144 77.1028 20.984 77.7588 20.664C78.4308 20.344 78.9508 19.816 79.3188 19.08C79.6868 18.344 79.8708 17.352 79.8708 16.104C79.8708 14.856 79.6868 13.88 79.3188 13.176C78.9508 12.456 78.4308 11.952 77.7588 11.664C77.1028 11.36 76.3268 11.208 75.4308 11.208H74.7588V21.144Z" fill="black"/>
</svg>
