<svg width="25" height="25" viewBox="0 0 25 25" fill="none" xmlns="http://www.w3.org/2000/svg">
<rect width="25" height="25" rx="5" fill="#565CE2"/>
<g clip-path="url(#clip0_20_60)">
<path d="M18.9783 14.9754C18.2163 14.3631 17.5174 14.0654 16.8415 14.0654C15.8637 14.0654 15.1597 14.6874 14.5223 15.3246C14.449 15.3979 14.3603 15.4321 14.243 15.4321C13.7059 15.4322 12.7611 14.7595 11.4346 13.433C9.87419 11.8724 9.28421 10.8799 9.68092 10.483C10.7564 9.4079 11.0921 8.33014 9.44552 6.28234C8.85606 5.54868 8.27933 5.19211 7.6824 5.19211C6.87738 5.19211 6.26541 5.83561 5.72549 6.40341C5.63215 6.50155 5.54397 6.59427 5.45751 6.68073C4.84727 7.29092 4.84759 8.62187 5.4584 10.2412C6.12858 12.018 7.45181 13.9508 9.18439 15.6836C10.5243 17.0234 11.9821 18.1061 13.4005 18.8331C14.6388 19.4678 15.8399 19.8079 16.7826 19.8079C16.7827 19.8079 16.7828 19.8079 16.783 19.8079C17.3729 19.8079 17.8521 19.6792 18.1686 19.4175C18.8114 18.886 20.008 17.9015 20 16.7321C19.9956 16.1049 19.652 15.5171 18.9783 14.9754Z" fill="white"/>
</g>
<defs>
<clipPath id="clip0_20_60">
<rect width="15" height="15" fill="white" transform="translate(5 5)"/>
</clipPath>
</defs>
</svg>
