<svg width="25" height="25" viewBox="0 0 25 25" fill="none" xmlns="http://www.w3.org/2000/svg">
<rect width="25" height="25" rx="5" fill="#565CE2"/>
<path d="M19.9714 6.7872C19.4197 7.08478 18.8291 7.2895 18.2066 7.38235C18.8417 6.91349 19.3273 6.17186 19.5589 5.28835C18.9631 5.71511 18.3041 6.02422 17.6033 6.19896C17.0445 5.46309 16.2458 5 15.3594 5C13.6602 5 12.283 6.69377 12.283 8.78143C12.283 9.08189 12.3125 9.37024 12.3636 9.6436C9.8075 9.49654 7.54156 7.98558 6.02609 5.703C5.75984 6.25894 5.60844 6.90484 5.60844 7.60784C5.60844 8.9233 6.15266 10.0767 6.97531 10.7549C6.47234 10.737 5.99891 10.5657 5.58406 10.2837V10.3293C5.58406 12.1638 6.64344 13.6932 8.04969 14.0415C7.79328 14.1251 7.51953 14.1736 7.24156 14.1736C7.04422 14.1736 6.85578 14.1499 6.66781 14.1073C7.06344 15.609 8.19594 16.7024 9.54594 16.7353C8.49641 17.7474 7.16609 18.3506 5.73266 18.3506C5.48844 18.3506 5.24469 18.3362 5 18.2999C6.36734 19.3726 7.98125 20 9.72453 20C15.3809 20 18.4719 14.2359 18.4719 9.24394C18.4719 9.08477 18.4719 8.92272 18.462 8.76009C19.0653 8.23126 19.5875 7.56113 20 6.80161L19.9714 6.7872Z" fill="white"/>
</svg>
