<svg width="25" height="30" viewBox="0 0 25 30" fill="none" xmlns="http://www.w3.org/2000/svg">
<rect y="4" width="25" height="25" rx="5" fill="#565CE2"/>
<path d="M8.624 24.288C7.6 24.288 6.576 24.096 5.552 23.712C4.544 23.328 3.64 22.768 2.84 22.032L4.856 19.608C5.416 20.088 6.04 20.48 6.728 20.784C7.416 21.088 8.08 21.24 8.72 21.24C9.456 21.24 10 21.104 10.352 20.832C10.72 20.56 10.904 20.192 10.904 19.728C10.904 19.232 10.696 18.872 10.28 18.648C9.88 18.408 9.336 18.144 8.648 17.856L6.608 16.992C6.08 16.768 5.576 16.472 5.096 16.104C4.616 15.72 4.224 15.248 3.92 14.688C3.616 14.128 3.464 13.472 3.464 12.72C3.464 11.856 3.696 11.072 4.16 10.368C4.64 9.664 5.296 9.104 6.128 8.688C6.976 8.272 7.944 8.064 9.032 8.064C9.928 8.064 10.824 8.24 11.72 8.592C12.616 8.944 13.4 9.456 14.072 10.128L12.272 12.36C11.76 11.96 11.248 11.656 10.736 11.448C10.224 11.224 9.656 11.112 9.032 11.112C8.424 11.112 7.936 11.24 7.568 11.496C7.216 11.736 7.04 12.08 7.04 12.528C7.04 13.008 7.264 13.368 7.712 13.608C8.176 13.848 8.744 14.104 9.416 14.376L11.432 15.192C12.376 15.576 13.128 16.104 13.688 16.776C14.248 17.448 14.528 18.336 14.528 19.44C14.528 20.304 14.296 21.104 13.832 21.84C13.368 22.576 12.696 23.168 11.816 23.616C10.936 24.064 9.872 24.288 8.624 24.288ZM17.1839 24V8.352H20.7119V24H17.1839Z" fill="white"/>
</svg>
